<?xml version="1.0" encoding="UTF-8" standalone="no"?>
<svg
   xmlns:dc="http://purl.org/dc/elements/1.1/"
   xmlns:cc="http://creativecommons.org/ns#"
   xmlns:rdf="http://www.w3.org/1999/02/22-rdf-syntax-ns#"
   xmlns:svg="http://www.w3.org/2000/svg"
   xmlns="http://www.w3.org/2000/svg"
   xml:space="preserve"
   enable-background="new 0 0 64 64"
   viewBox="0 0 64 64"
   y="0px"
   x="0px"
   id="Layer_1"
   version="1.1"><metadata
     id="metadata13"><rdf:RDF><cc:Work
         rdf:about=""><dc:format>image/svg+xml</dc:format><dc:type
           rdf:resource="http://purl.org/dc/dcmitype/StillImage" /><dc:title></dc:title></cc:Work></rdf:RDF></metadata><defs
     id="defs11" /><g
     style="fill:#ffffff;fill-opacity:1"
     id="g3"><g
       style="fill:#ffffff;fill-opacity:1"
       id="g5"><path
         style="fill:#ffffff;fill-opacity:1"
         id="path7"
         d="M54,64c-5.5,0-10-4.5-10-10c0-0.7,0.1-1.5,0.2-2.1L17.6,38.5C15.7,40.7,13,42,10,42C4.5,42,0,37.5,0,32s4.5-10,10-10    c3,0,5.7,1.3,7.6,3.5l26.7-13.3C44.1,11.5,44,10.7,44,10c0-5.5,4.5-10,10-10s10,4.5,10,10s-4.5,10-10,10c-3.4,0-6.3-1.7-8.1-4.2    L19.5,29c0.3,1,0.5,2,0.5,3s-0.2,2.1-0.5,3l26.3,13.2c1.8-2.5,4.8-4.2,8.1-4.2c5.5,0,10,4.5,10,10S59.5,64,54,64z M54,48    c-3.3,0-6,2.7-6,6s2.7,6,6,6s6-2.7,6-6S57.3,48,54,48z M10,26c-3.3,0-6,2.7-6,6s2.7,6,6,6s6-2.7,6-6S13.3,26,10,26z M54,4    c-3.3,0-6,2.7-6,6s2.7,6,6,6s6-2.7,6-6S57.3,4,54,4z" /></g></g></svg>